<svg width="11" height="10" viewBox="0 0 11 10" fill="none" xmlns="http://www.w3.org/2000/svg">
<g id="logo">
<g id="flag">
<mask id="path-1-inside-1_1_38" fill="white">
<path d="M5 0.700195C5.00012 0.235474 5.44467 -0.0998996 5.8916 0.0273438L10.4355 1.32324C11.1127 1.5165 11.1127 2.47568 10.4355 2.66895L6 3.93359V5.13867H5V0.700195ZM6.48926 1.37012C6.29933 1.32089 6.11336 1.46398 6.11328 1.66016V2.61719C6.11341 2.81333 6.29936 2.95645 6.48926 2.90723L8.33398 2.42871C8.63362 2.35104 8.63362 1.9263 8.33398 1.84863L6.48926 1.37012Z"/>
</mask>
<path d="M5 0.700195C5.00012 0.235474 5.44467 -0.0998996 5.8916 0.0273438L10.4355 1.32324C11.1127 1.5165 11.1127 2.47568 10.4355 2.66895L6 3.93359V5.13867H5V0.700195ZM6.48926 1.37012C6.29933 1.32089 6.11336 1.46398 6.11328 1.66016V2.61719C6.11341 2.81333 6.29936 2.95645 6.48926 2.90723L8.33398 2.42871C8.63362 2.35104 8.63362 1.9263 8.33398 1.84863L6.48926 1.37012Z" fill="#F9A801"/>
<path d="M5 0.700195L4.9 0.70017V0.700195H5ZM5.8916 0.0273438L5.91903 -0.0688219L5.91898 -0.0688343L5.8916 0.0273438ZM10.4355 1.32324L10.463 1.22708L10.463 1.22708L10.4355 1.32324ZM10.4355 2.66895L10.463 2.76511L10.463 2.76511L10.4355 2.66895ZM6 3.93359L5.97258 3.83743L5.9 3.85812V3.93359H6ZM6 5.13867V5.23867H6.1V5.13867H6ZM5 5.13867H4.9V5.23867H5V5.13867ZM6.48926 1.37012L6.51437 1.27332L6.51435 1.27332L6.48926 1.37012ZM6.11328 1.66016L6.01328 1.66012V1.66016H6.11328ZM6.11328 2.61719H6.01328V2.61725L6.11328 2.61719ZM6.48926 2.90723L6.51435 3.00403L6.51437 3.00402L6.48926 2.90723ZM8.33398 2.42871L8.30889 2.33191L8.30888 2.33191L8.33398 2.42871ZM8.33398 1.84863L8.30888 1.94543L8.30889 1.94543L8.33398 1.84863ZM5 0.700195L5.1 0.70022C5.1001 0.301925 5.4811 0.0144468 5.86422 0.123522L5.8916 0.0273438L5.91898 -0.0688343C5.40824 -0.214246 4.90013 0.169023 4.9 0.70017L5 0.700195ZM5.8916 0.0273438L5.86418 0.123509L10.4081 1.41941L10.4355 1.32324L10.463 1.22708L5.91903 -0.0688219L5.8916 0.0273438ZM10.4355 1.32324L10.4081 1.4194C10.9885 1.58505 10.9885 2.40713 10.4081 2.57279L10.4355 2.66895L10.463 2.76511C11.2369 2.54423 11.2369 1.44795 10.463 1.22708L10.4355 1.32324ZM10.4355 2.66895L10.4081 2.57278L5.97258 3.83743L6 3.93359L6.02742 4.02976L10.463 2.76511L10.4355 2.66895ZM6 3.93359H5.9V5.13867H6H6.1V3.93359H6ZM6 5.13867V5.03867H5V5.13867V5.23867H6V5.13867ZM5 5.13867H5.1V0.700195H5H4.9V5.13867H5ZM6.48926 1.37012L6.51435 1.27332C6.26148 1.20777 6.01339 1.39817 6.01328 1.66012L6.11328 1.66016L6.21328 1.6602C6.21333 1.52979 6.33718 1.434 6.46417 1.46692L6.48926 1.37012ZM6.11328 1.66016H6.01328V2.61719H6.11328H6.21328V1.66016H6.11328ZM6.11328 2.61719L6.01328 2.61725C6.01345 2.87911 6.26148 3.06957 6.51435 3.00403L6.48926 2.90723L6.46417 2.81043C6.33724 2.84333 6.21337 2.74754 6.21328 2.61712L6.11328 2.61719ZM6.48926 2.90723L6.51437 3.00402L8.35909 2.52551L8.33398 2.42871L8.30888 2.33191L6.46415 2.81043L6.48926 2.90723ZM8.33398 2.42871L8.35908 2.52551C8.75859 2.42196 8.75859 1.85539 8.35908 1.75183L8.33398 1.84863L8.30889 1.94543C8.50865 1.99721 8.50865 2.28013 8.30889 2.33191L8.33398 2.42871ZM8.33398 1.84863L8.35909 1.75184L6.51437 1.27332L6.48926 1.37012L6.46415 1.46691L8.30888 1.94543L8.33398 1.84863Z" fill="black" fill-opacity="0.52" mask="url(#path-1-inside-1_1_38)"/>
</g>
<g id="wood">
<mask id="path-3-inside-2_1_38" fill="white">
<path d="M0.2 5.02912C0.0895429 5.02912 -0.000711592 5.11877 0.00686249 5.22897C0.0747766 6.21707 0.644418 7.15464 1.61091 7.85754C2.64236 8.60769 4.04131 9.02912 5.5 9.02912C6.95869 9.02912 8.35763 8.60769 9.38908 7.85755C10.3556 7.15464 10.9252 6.21707 10.9931 5.22898C11.0007 5.11878 10.9105 5.02912 10.8 5.02912L5.5 5.02912H0.2Z"/>
</mask>
<path d="M0.2 5.02912C0.0895429 5.02912 -0.000711592 5.11877 0.00686249 5.22897C0.0747766 6.21707 0.644418 7.15464 1.61091 7.85754C2.64236 8.60769 4.04131 9.02912 5.5 9.02912C6.95869 9.02912 8.35763 8.60769 9.38908 7.85755C10.3556 7.15464 10.9252 6.21707 10.9931 5.22898C11.0007 5.11878 10.9105 5.02912 10.8 5.02912L5.5 5.02912H0.2Z" fill="white" stroke="black" stroke-opacity="0.91" stroke-width="0.2" mask="url(#path-3-inside-2_1_38)"/>
</g>
</g>
</svg>
